<svg width="24.000000" height="24.000000" viewBox="0 0 24 24" fill="none" xmlns="http://www.w3.org/2000/svg" xmlns:xlink="http://www.w3.org/1999/xlink">
	<desc>
			Created with Pixso.
	</desc>
	<defs>
		<clipPath id="clip369_380">
			<rect id="FacebookLogo" rx="0.000000" width="23.000000" height="23.000000" transform="translate(0.500000 0.500000)" fill="white" fill-opacity="0"/>
		</clipPath>
	</defs>
	<rect id="FacebookLogo" rx="0.000000" width="23.000000" height="23.000000" transform="translate(0.500000 0.500000)" fill="#FFFFFF" fill-opacity="0"/>
	<g clip-path="url(#clip369_380)">
		<path id="Vector" d="M21.75 12C21.74 14.38 20.87 16.68 19.29 18.46C17.71 20.24 15.53 21.39 13.16 21.68C13.11 21.68 13.06 21.68 13.01 21.66C12.96 21.64 12.91 21.62 12.87 21.58C12.83 21.55 12.8 21.5 12.78 21.45C12.76 21.41 12.74 21.35 12.75 21.3L12.75 14.25L15 14.25C15.1 14.25 15.2 14.22 15.29 14.18C15.39 14.14 15.47 14.08 15.54 14.01C15.61 13.93 15.67 13.84 15.7 13.75C15.74 13.65 15.75 13.55 15.75 13.45C15.73 13.25 15.64 13.07 15.5 12.94C15.35 12.81 15.17 12.74 14.97 12.75L12.75 12.75L12.75 10.5C12.75 10.1 12.9 9.72 13.18 9.43C13.47 9.15 13.85 9 14.25 9L15.75 9C15.85 9 15.95 8.97 16.04 8.93C16.14 8.89 16.22 8.83 16.29 8.76C16.36 8.68 16.42 8.59 16.45 8.5C16.49 8.4 16.5 8.3 16.5 8.2C16.48 8 16.39 7.82 16.25 7.69C16.1 7.56 15.91 7.49 15.72 7.5L14.25 7.5C13.45 7.5 12.69 7.81 12.12 8.37C11.56 8.94 11.25 9.7 11.25 10.5L11.25 12.75L9 12.75C8.89 12.74 8.79 12.77 8.7 12.81C8.6 12.85 8.52 12.91 8.45 12.98C8.38 13.06 8.32 13.15 8.29 13.24C8.25 13.34 8.24 13.44 8.25 13.54C8.26 13.74 8.35 13.92 8.49 14.05C8.64 14.18 8.83 14.25 9.02 14.25L11.25 14.25L11.25 21.3C11.25 21.36 11.23 21.41 11.21 21.46C11.19 21.5 11.16 21.55 11.12 21.58C11.08 21.62 11.04 21.65 10.99 21.66C10.93 21.68 10.88 21.68 10.83 21.68C8.4 21.38 6.17 20.18 4.58 18.32C2.99 16.46 2.16 14.07 2.25 11.63C2.44 6.57 6.54 2.45 11.61 2.25C12.92 2.2 14.23 2.42 15.45 2.88C16.68 3.35 17.8 4.06 18.75 4.97C19.69 5.88 20.45 6.97 20.96 8.18C21.48 9.38 21.74 10.68 21.75 12Z" fill="#FFFFFF" fill-opacity="1.000000" fill-rule="nonzero"/>
	</g>
</svg>
