<svg width="24.000000" height="24.000000" viewBox="0 0 24 24" fill="none" xmlns="http://www.w3.org/2000/svg" xmlns:xlink="http://www.w3.org/1999/xlink">
	<desc>
			Created with Pixso.
	</desc>
	<defs>
		<clipPath id="clip369_378">
			<rect id="InstagramLogo" rx="0.000000" width="23.000000" height="23.000000" transform="translate(0.500000 0.500000)" fill="white" fill-opacity="0"/>
		</clipPath>
	</defs>
	<rect id="InstagramLogo" rx="0.000000" width="23.000000" height="23.000000" transform="translate(0.500000 0.500000)" fill="#FFFFFF" fill-opacity="0"/>
	<g clip-path="url(#clip369_378)">
		<path id="Vector" d="M16.5 2.25L7.5 2.25C6.1 2.25 4.77 2.8 3.78 3.78C2.8 4.77 2.25 6.1 2.25 7.5L2.25 16.5C2.25 17.89 2.8 19.22 3.78 20.21C4.77 21.19 6.1 21.74 7.5 21.75L16.5 21.75C17.89 21.74 19.22 21.19 20.21 20.21C21.19 19.22 21.74 17.89 21.75 16.5L21.75 7.5C21.74 6.1 21.19 4.77 20.21 3.78C19.22 2.8 17.89 2.25 16.5 2.25ZM12 16.5C11.1 16.5 10.24 16.23 9.5 15.74C8.76 15.24 8.18 14.54 7.84 13.72C7.5 12.89 7.41 11.99 7.58 11.12C7.76 10.24 8.18 9.44 8.81 8.81C9.44 8.18 10.24 7.76 11.12 7.58C11.99 7.41 12.89 7.5 13.72 7.84C14.54 8.18 15.24 8.75 15.74 9.49C16.23 10.23 16.5 11.11 16.5 12C16.49 13.19 16.02 14.33 15.18 15.18C14.33 16.02 13.19 16.49 12 16.5ZM17.62 7.5C17.4 7.5 17.18 7.43 17 7.31C16.81 7.18 16.67 7.01 16.58 6.8C16.5 6.59 16.47 6.37 16.52 6.15C16.56 5.93 16.67 5.73 16.82 5.57C16.98 5.42 17.18 5.31 17.4 5.27C17.62 5.22 17.84 5.25 18.05 5.33C18.26 5.42 18.43 5.56 18.56 5.75C18.68 5.93 18.75 6.15 18.75 6.37C18.75 6.67 18.63 6.95 18.42 7.17C18.2 7.38 17.92 7.5 17.62 7.5ZM15 12C15 12.59 14.82 13.17 14.49 13.66C14.16 14.16 13.69 14.54 13.14 14.77C12.59 14.99 11.99 15.05 11.41 14.94C10.83 14.82 10.29 14.54 9.87 14.12C9.45 13.7 9.17 13.16 9.05 12.58C8.94 12 9 11.4 9.22 10.85C9.45 10.3 9.83 9.83 10.33 9.5C10.82 9.17 11.4 9 12 9C12.79 9 13.55 9.31 14.12 9.87C14.68 10.44 15 11.2 15 12Z" fill="#FFFFFF" fill-opacity="1.000000" fill-rule="nonzero"/>
	</g>
</svg>
