<svg width="24.000000" height="24.000000" viewBox="0 0 24 24" fill="none" xmlns="http://www.w3.org/2000/svg" xmlns:xlink="http://www.w3.org/1999/xlink">
	<desc>
			Created with Pixso.
	</desc>
	<defs>
		<clipPath id="clip369_384">
			<rect id="XLogo" rx="0.000000" width="23.000000" height="23.000000" transform="translate(0.500000 0.500000)" fill="white" fill-opacity="0"/>
		</clipPath>
	</defs>
	<rect id="XLogo" rx="0.000000" width="23.000000" height="23.000000" transform="translate(0.500000 0.500000)" fill="#FFFFFF" fill-opacity="0"/>
	<g clip-path="url(#clip369_384)">
		<path id="Vector" d="M20.15 20.61C20.09 20.72 19.99 20.82 19.88 20.89C19.76 20.96 19.63 20.99 19.49 21L14.99 21C14.87 20.99 14.74 20.96 14.63 20.9C14.52 20.84 14.43 20.75 14.36 20.65L10.57 14.68L5.05 20.75C4.92 20.89 4.73 20.98 4.53 20.99C4.34 21 4.14 20.93 4 20.79C3.85 20.66 3.76 20.48 3.75 20.28C3.74 20.08 3.81 19.89 3.94 19.74L9.73 13.37L3.86 4.15C3.79 4.03 3.75 3.9 3.75 3.77C3.74 3.64 3.77 3.5 3.84 3.38C3.9 3.27 4 3.17 4.11 3.1C4.23 3.03 4.36 2.99 4.49 3L8.99 3C9.12 3 9.25 3.03 9.36 3.09C9.47 3.15 9.56 3.24 9.63 3.34L13.42 9.31L18.94 3.24C19.07 3.1 19.26 3.01 19.46 3C19.65 2.99 19.85 3.06 19.99 3.2C20.14 3.33 20.23 3.51 20.24 3.71C20.25 3.91 20.18 4.1 20.05 4.25L14.26 10.62L20.13 19.84C20.2 19.96 20.24 20.09 20.24 20.22C20.25 20.36 20.22 20.49 20.15 20.61Z" fill="#FFFFFF" fill-opacity="1.000000" fill-rule="nonzero"/>
	</g>
</svg>
