<svg width="24.000000" height="24.000000" viewBox="0 0 24 24" fill="none" xmlns="http://www.w3.org/2000/svg" xmlns:xlink="http://www.w3.org/1999/xlink">
	<desc>
			Created with Pixso.
	</desc>
	<defs>
		<clipPath id="clip369_382">
			<rect id="YoutubeLogo" rx="0.000000" width="23.000000" height="23.000000" transform="translate(0.500000 0.500000)" fill="white" fill-opacity="0"/>
		</clipPath>
	</defs>
	<rect id="YoutubeLogo" rx="0.000000" width="23.000000" height="23.000000" transform="translate(0.500000 0.500000)" fill="#FFFFFF" fill-opacity="0"/>
	<g clip-path="url(#clip369_382)">
		<path id="Vector" d="M21.96 6.51C21.88 6.17 21.71 5.85 21.47 5.58C21.23 5.31 20.94 5.11 20.61 4.97C17.39 3.73 12.28 3.75 12 3.75C11.71 3.75 6.6 3.73 3.38 4.97C3.05 5.11 2.76 5.31 2.52 5.58C2.28 5.85 2.11 6.17 2.03 6.51C1.78 7.45 1.5 9.16 1.5 12C1.5 14.83 1.78 16.54 2.03 17.48C2.11 17.82 2.28 18.14 2.52 18.41C2.76 18.68 3.05 18.89 3.38 19.02C6.46 20.2 11.28 20.25 11.93 20.25L12.06 20.25C12.71 20.25 17.53 20.2 20.61 19.02C20.94 18.89 21.23 18.68 21.47 18.41C21.71 18.14 21.88 17.82 21.96 17.48C22.21 16.54 22.5 14.83 22.5 12C22.5 9.16 22.21 7.45 21.96 6.51ZM15.05 12.61L11.3 15.23C11.19 15.31 11.06 15.36 10.92 15.37C10.78 15.37 10.65 15.35 10.53 15.28C10.4 15.22 10.3 15.12 10.23 15.01C10.16 14.89 10.12 14.76 10.12 14.62L10.12 9.37C10.12 9.23 10.16 9.1 10.23 8.98C10.3 8.86 10.4 8.77 10.52 8.7C10.65 8.64 10.78 8.61 10.92 8.62C11.06 8.63 11.19 8.68 11.3 8.76L15.05 11.38C15.15 11.45 15.23 11.54 15.29 11.65C15.34 11.76 15.37 11.87 15.37 12C15.37 12.12 15.34 12.23 15.29 12.34C15.23 12.45 15.15 12.54 15.05 12.61L15.05 12.61Z" fill="#FFFFFF" fill-opacity="1.000000" fill-rule="nonzero"/>
	</g>
</svg>
