<svg width="24.000000" height="24.000000" viewBox="0 0 24 24" fill="none" xmlns="http://www.w3.org/2000/svg" xmlns:xlink="http://www.w3.org/1999/xlink">
	<desc>
			Created with Pixso.
	</desc>
	<defs>
		<clipPath id="clip370_1188">
			<rect id="Check" rx="0.000000" width="23.000000" height="23.000000" transform="translate(0.500000 0.500000)" fill="white" fill-opacity="0"/>
		</clipPath>
	</defs>
	<rect id="Check" rx="0.000000" width="23.000000" height="23.000000" transform="translate(0.500000 0.500000)" fill="#FFFFFF" fill-opacity="0"/>
	<g clip-path="url(#clip370_1188)">
		<path id="Vector" d="M21.53 7.28L9.53 19.28C9.46 19.35 9.37 19.4 9.28 19.44C9.19 19.48 9.09 19.5 9 19.5C8.9 19.5 8.8 19.48 8.71 19.44C8.62 19.4 8.53 19.35 8.46 19.28L3.21 14.03C3.07 13.88 2.99 13.69 2.99 13.49C2.99 13.3 3.07 13.11 3.21 12.96C3.35 12.82 3.55 12.74 3.75 12.74C3.94 12.74 4.13 12.82 4.28 12.96L9 17.68L20.46 6.21C20.6 6.07 20.8 5.99 21 5.99C21.19 5.99 21.38 6.07 21.53 6.21C21.67 6.35 21.75 6.55 21.75 6.74C21.75 6.94 21.67 7.13 21.53 7.28Z" fill="#6E72EC" fill-opacity="1.000000" fill-rule="nonzero"/>
	</g>
</svg>
